<?xml version="1.0" standalone="no"?>
<!DOCTYPE svg PUBLIC "-//W3C//DTD SVG 20010904//EN"
 "http://www.w3.org/TR/2001/REC-SVG-20010904/DTD/svg10.dtd">
<svg version="1.0" xmlns="http://www.w3.org/2000/svg"
 width="1280.000000pt" height="1164.000000pt" viewBox="0 0 1280.000000 1164.000000"
 preserveAspectRatio="xMidYMid meet">
<metadata>
Created by potrace 1.15, written by Peter Selinger 2001-2017
</metadata>
<g transform="translate(0.000000,1164.000000) scale(0.100000,-0.100000)"
fill="#000000" stroke="none">
<path d="M5494 11469 c4 -35 9 -81 12 -102 l6 -38 -71 45 c-39 25 -71 41 -71
35 0 -6 18 -184 40 -396 22 -212 39 -387 37 -389 -1 -2 -49 60 -106 136 -56
77 -106 140 -111 140 -17 0 -19 -18 -9 -118 16 -156 13 -159 -49 -74 -78 105
-85 100 -70 -52 5 -59 8 -109 6 -111 -13 -14 -172 54 -386 163 -219 111 -372
180 -372 167 0 -2 45 -60 99 -127 55 -68 99 -124 98 -124 -1 -1 -47 20 -101
47 -55 26 -126 57 -159 68 -66 23 -65 27 -9 -47 22 -30 20 -29 -108 29 -136
62 -307 123 -375 134 l-40 6 120 -116 c115 -111 118 -115 74 -96 -26 11 -89
33 -140 49 -187 59 -195 75 107 -229 286 -289 362 -377 571 -659 122 -165 293
-407 293 -415 0 -2 -46 18 -102 45 -241 113 -408 153 -638 153 -132 0 -172 -4
-265 -25 -60 -15 -136 -36 -168 -48 -63 -24 -145 -83 -165 -121 -8 -13 -32
-38 -55 -54 -38 -28 -106 -120 -96 -130 3 -2 34 5 69 16 36 11 98 23 139 26
l74 6 -44 -41 c-24 -22 -55 -59 -68 -83 -22 -39 -23 -42 -5 -35 72 29 178 47
274 47 119 1 200 -15 322 -63 l83 -32 -149 -13 c-266 -22 -406 -60 -531 -142
-33 -22 -112 -92 -175 -155 l-115 -116 140 6 140 6 -31 -26 c-17 -14 -42 -40
-56 -58 l-25 -33 256 0 c223 0 271 -3 372 -22 184 -36 520 -140 519 -161 0 -4
-123 -75 -273 -157 -246 -136 -272 -153 -275 -178 -3 -22 -15 -34 -58 -58 -62
-35 -68 -42 -59 -69 6 -19 15 -20 128 -20 l122 -1 -47 -27 c-39 -22 -48 -32
-48 -54 l0 -28 193 0 c197 0 332 -14 437 -46 60 -18 145 -58 154 -73 4 -5 -7
-31 -24 -58 -100 -157 -89 -395 22 -488 l31 -26 22 21 c16 15 25 18 30 10 8
-13 -4 -28 -101 -125 -56 -55 -82 -92 -119 -168 -54 -108 -61 -160 -37 -266 7
-29 12 -85 12 -123 0 -38 5 -78 11 -89 10 -19 13 -18 73 24 l63 44 7 -84 c3
-47 10 -92 14 -99 6 -11 30 1 106 53 92 63 99 66 111 49 13 -17 16 -16 59 13
24 17 47 28 49 24 2 -5 10 -25 16 -45 11 -33 9 -42 -12 -85 -47 -93 -86 -270
-136 -623 -5 -38 -9 -44 -26 -42 -11 2 -34 6 -51 9 -35 6 -43 -3 -68 -71 -17
-44 -21 -48 -46 -42 -31 6 -51 -11 -68 -59 -6 -16 -58 -147 -115 -289 -85
-212 -109 -262 -130 -272 -15 -8 -32 -32 -42 -59 -13 -32 -23 -45 -37 -45 -80
0 -104 -79 -133 -430 -20 -234 -34 -289 -91 -344 -47 -45 -74 -98 -74 -147 0
-17 25 -142 56 -277 51 -223 56 -251 48 -306 l-9 -61 -25 48 c-14 26 -27 47
-30 47 -4 0 -17 -21 -29 -47 -21 -42 -24 -66 -29 -203 -4 -143 -2 -162 21
-250 35 -128 42 -175 72 -460 19 -175 24 -268 20 -326 l-7 -81 100 -224 c55
-123 135 -300 178 -394 l79 -170 116 -120 c98 -102 124 -135 165 -215 37 -72
66 -113 124 -171 41 -42 94 -86 117 -98 23 -12 57 -34 75 -50 85 -74 193 -121
333 -145 64 -11 99 -23 127 -43 21 -16 47 -32 56 -38 10 -5 50 -34 89 -62 l70
-53 255 0 c252 0 256 0 299 24 93 52 150 61 329 57 416 -12 515 -2 696 68 151
58 244 123 413 287 86 82 185 172 221 199 36 27 105 83 153 124 84 71 92 81
137 177 27 56 88 168 136 250 172 292 202 402 174 621 -7 54 -12 111 -11 126
1 16 44 182 96 370 52 188 95 345 95 349 0 21 -33 18 -64 -6 -19 -14 -37 -26
-39 -26 -2 0 13 60 33 132 36 127 37 133 19 142 -15 7 -25 4 -42 -12 -13 -12
-27 -22 -31 -22 -9 0 -2 70 30 320 30 234 30 258 0 303 -22 32 -23 41 -17 99
5 34 4 76 0 91 -4 15 -38 60 -75 100 l-66 72 6 50 c4 27 9 131 13 230 5 161 4
184 -12 220 -12 25 -21 76 -25 135 -5 81 -10 101 -32 134 l-26 38 -22 -42
c-25 -49 -19 -55 -99 85 -28 49 -51 101 -51 115 0 40 -77 480 -86 489 -2 2
-19 -10 -37 -27 l-33 -32 -22 23 c-19 20 -22 35 -22 104 0 46 -8 111 -19 154
-26 101 -28 182 -8 248 22 69 22 172 1 242 -10 30 -16 71 -15 91 3 60 -27 168
-69 244 l-38 72 51 4 c94 7 207 -11 339 -55 71 -24 128 -41 128 -39 0 1 -7 17
-16 35 -35 68 -108 159 -167 208 -66 55 -65 56 66 8 42 -15 77 -26 77 -23 0
17 -57 112 -96 160 l-47 57 119 -6 c147 -7 288 -35 464 -92 74 -24 136 -42
139 -40 11 11 -173 177 -273 245 -60 41 -104 76 -99 77 11 4 214 -56 293 -86
l50 -19 -20 27 c-29 42 -140 143 -215 196 -36 26 -65 48 -63 50 2 1 57 -6 123
-16 182 -27 180 -28 115 34 -31 29 -104 85 -163 126 -59 41 -109 77 -112 80
-2 4 47 -1 108 -10 62 -10 129 -18 150 -18 l38 -1 -63 56 c-94 84 -237 175
-388 248 l-134 64 39 16 c91 38 310 102 580 168 159 39 293 74 297 77 12 11
-211 51 -282 51 -77 1 -66 10 40 35 41 10 79 21 83 25 4 3 -23 12 -60 19 -38
7 -74 15 -81 20 -6 4 49 22 128 41 77 19 137 37 133 41 -5 4 -56 16 -115 28
-143 28 -415 27 -838 -4 l-75 -6 90 47 c299 155 736 261 1190 289 55 3 119 8
143 11 40 5 42 7 42 38 0 32 -3 34 -77 64 -66 26 -78 34 -81 56 -2 18 -12 29
-38 38 -48 17 -22 26 79 27 l77 1 0 39 0 38 -109 42 c-236 91 -455 137 -700
148 l-143 6 38 24 c75 46 340 172 439 209 55 20 159 51 230 69 l130 33 -49 22
c-43 20 -66 22 -199 23 -162 0 -163 3 -8 38 l102 23 -36 19 c-20 10 -55 22
-78 26 l-42 7 80 21 c44 12 107 27 140 33 l59 12 -39 22 c-35 18 -60 21 -207
24 -310 7 -589 -45 -943 -173 -48 -18 26 26 150 88 140 70 269 123 383 159 40
13 72 26 72 29 0 10 -118 41 -204 53 l-79 12 61 18 c34 11 62 22 62 26 0 4
-20 13 -45 20 -25 7 -43 15 -40 19 4 3 52 22 108 43 l102 36 -37 16 c-58 25
-216 48 -296 44 l-74 -3 44 39 c78 71 178 168 178 172 0 2 -18 4 -40 4 -25 0
-94 -22 -190 -60 -156 -62 -178 -69 -146 -45 10 7 90 82 177 166 158 152 169
168 112 169 -13 0 -102 -32 -199 -70 -97 -39 -178 -69 -181 -66 -9 9 238 246
352 337 176 140 175 133 25 126 -69 -4 -138 -9 -155 -13 -29 -6 -28 -5 15 29
25 20 86 77 135 128 l90 91 -120 -5 c-123 -6 -230 -30 -340 -77 -101 -43 -217
-132 -382 -293 l-164 -161 26 69 c14 37 23 70 21 72 -2 3 -34 -14 -71 -37 -36
-24 -68 -41 -70 -39 -2 2 23 73 54 157 32 83 55 152 51 152 -6 0 -126 -73
-202 -124 -16 -10 -28 -15 -28 -10 0 4 38 81 85 170 47 90 85 166 85 169 0 13
-26 0 -128 -69 -153 -102 -241 -176 -420 -353 -85 -85 -156 -152 -157 -151 -1
2 -35 134 -76 293 -72 281 -75 290 -99 293 -21 2 -33 -8 -70 -58 -24 -33 -51
-60 -60 -60 -10 0 -78 -84 -171 -210 -85 -115 -157 -210 -161 -210 -3 0 -30
44 -58 98 -161 303 -370 549 -604 711 -111 76 -110 76 -102 0z m279 -324 c20
-28 18 -27 -26 10 -26 21 -47 46 -47 54 0 17 40 -18 73 -64z m29 -317 c112
-169 244 -421 274 -524 29 -97 24 -202 -15 -309 -57 -155 -80 -241 -106 -393
-35 -199 -32 -192 -55 -192 -11 0 -20 4 -20 8 0 19 -130 1420 -135 1455 -3 20
-3 37 -1 37 2 0 28 -37 58 -82z m1285 -291 c-24 -36 -107 -129 -107 -120 1 17
114 167 118 155 2 -7 -3 -23 -11 -35z m728 -14 c-14 -27 -68 -93 -121 -148
-53 -55 -89 -89 -81 -76 19 28 219 271 224 271 2 0 -8 -21 -22 -47z m-1201
-95 c7 -68 28 -521 47 -997 16 -413 7 -501 -60 -581 l-28 -34 -29 21 c-16 12
-121 114 -233 226 l-204 205 13 113 c36 338 192 720 419 1031 31 43 59 77 63
78 3 0 9 -28 12 -62z m526 -394 c-109 -427 -172 -660 -184 -671 -3 -4 -8 -4
-10 -2 -5 4 137 601 214 899 27 106 50 173 63 187 11 13 22 22 23 20 2 -2 -46
-196 -106 -433z m-131 -194 c-69 -281 -129 -513 -133 -517 -3 -3 -6 24 -6 61
0 96 190 866 228 925 15 23 29 41 32 41 3 0 -51 -230 -121 -510z m-829 273
c-69 -191 -95 -306 -155 -689 -5 -27 -8 -30 -35 -26 -28 4 -30 7 -30 46 0 61
27 218 56 326 31 114 78 238 142 374 57 121 70 103 22 -31z m67 -78 c-3 -76
-11 -108 -50 -210 -42 -110 -84 -286 -103 -432 -3 -29 -11 -53 -17 -53 -14 0
-2 250 18 365 21 121 59 260 103 374 31 83 37 91 45 70 5 -13 7 -64 4 -114z
m693 -116 c-65 -261 -71 -282 -75 -277 -7 6 16 162 35 245 20 83 79 248 86
240 2 -2 -19 -96 -46 -208z m-1603 41 c11 -15 45 -131 40 -137 -12 -11 -91 93
-126 167 -48 100 -41 115 22 45 28 -32 57 -66 64 -75z m1438 -283 c14 -332 14
-361 -1 -423 -21 -84 -26 -73 -49 102 -19 149 -22 417 -6 518 16 97 32 168 37
164 2 -3 11 -165 19 -361z m-1322 258 c15 -23 9 -20 -26 15 -26 24 -47 49 -47
54 0 13 47 -32 73 -69z m-269 -55 c49 -54 142 -173 182 -235 18 -28 17 -28
-46 15 -115 77 -248 219 -300 319 -11 22 -9 22 50 -10 34 -19 85 -59 114 -89z
m2501 -44 c-60 -144 -58 -141 -129 -181 -86 -48 -124 -61 -139 -46 -9 9 28 51
148 171 88 88 160 160 161 160 1 0 -18 -47 -41 -104z m-2194 -79 c9 -16 8 -17
-10 -5 -12 7 -21 16 -21 20 0 3 -3 15 -6 25 -5 16 -4 16 11 -2 9 -11 21 -28
26 -38z m-384 -17 c47 -28 125 -81 172 -118 92 -71 291 -264 291 -281 0 -18
-72 -12 -118 9 -58 26 -104 67 -202 180 -46 52 -119 132 -164 178 -44 45 -77
82 -72 82 4 0 46 -23 93 -50z m2819 27 c-16 -12 -73 -54 -125 -93 -53 -40
-150 -124 -216 -188 -168 -162 -171 -132 -4 44 131 139 137 143 249 200 63 33
117 59 120 59 3 0 -8 -10 -24 -22z m-2201 -36 c3 -10 1 -29 -4 -42 l-10 -24 0
27 c-1 14 -4 33 -7 42 -3 9 -1 16 4 16 6 0 13 -8 17 -19z m2435 -48 c0 -5 -62
-51 -137 -103 -178 -124 -272 -198 -357 -279 -74 -70 -62 -45 26 56 85 97 260
237 380 304 51 28 88 37 88 22z m-2996 -153 c71 -68 201 -217 270 -309 9 -12
4 -13 -32 -8 -36 4 -50 13 -80 49 -20 23 -82 92 -136 152 -55 60 -114 132
-131 160 -17 28 -40 65 -50 81 l-20 30 45 -35 c25 -19 85 -73 134 -120z m2375
23 c-93 -111 -132 -152 -196 -203 -41 -33 -82 -60 -92 -60 -17 0 -18 2 -3 43
16 46 59 83 212 186 78 53 103 63 79 34z m646 -250 c-22 -15 -71 -42 -109 -61
-93 -45 -279 -151 -382 -218 -46 -29 -84 -49 -84 -43 0 19 276 191 434 270
164 82 210 99 141 52z m-2165 -59 c34 -14 40 -21 40 -45 0 -27 -3 -29 -39 -29
-43 0 -56 11 -66 58 -8 38 3 41 65 16z m1074 -31 c-59 -93 -67 -101 -80 -96
-21 8 -18 13 38 70 59 60 68 65 42 26z m-887 -88 c94 -76 173 -166 244 -280
54 -87 56 -96 33 -116 -13 -11 -38 10 -181 152 -91 90 -171 178 -179 196 -15
35 -19 113 -6 113 4 0 44 -29 89 -65z m-477 37 c0 -5 -21 -18 -47 -30 -79 -35
-88 -35 -107 -8 -9 14 -16 27 -16 30 0 3 19 7 43 9 83 7 127 7 127 -1z m-230
-32 c0 -5 -4 -10 -9 -10 -6 0 -13 5 -16 10 -3 6 1 10 9 10 9 0 16 -4 16 -10z
m1727 -66 c-56 -88 -125 -218 -167 -315 l-32 -75 -126 -57 c-69 -31 -127 -55
-129 -53 -5 4 112 162 190 256 75 91 298 322 304 316 2 -2 -16 -35 -40 -72z
m-1287 -15 c131 -21 217 -81 329 -229 31 -41 75 -112 98 -156 48 -92 113 -277
113 -321 0 -16 -12 -53 -27 -81 -28 -51 -178 -254 -193 -260 -14 -5 -140 119
-165 162 -13 23 -44 91 -68 152 -80 195 -200 424 -324 616 -71 111 -74 101 40
118 77 11 125 11 197 -1z m-310 -125 c54 -92 128 -235 113 -219 -16 16 -193
291 -193 298 0 4 7 7 15 7 8 0 37 -39 65 -86z m3420 56 c0 -6 -11 -8 -27 -4
-40 10 -41 14 -5 14 18 0 32 -5 32 -10z m-3555 -150 c70 -117 199 -370 192
-377 -10 -10 -99 130 -143 223 -25 55 -68 144 -95 199 -58 117 -43 102 46 -45z
m93 -7 c78 -121 144 -236 191 -333 44 -91 22 -57 -59 93 -60 110 -95 168 -197
324 -8 13 -13 23 -10 23 3 0 36 -48 75 -107z m1212 -6 c-15 -40 -41 -77 -90
-129 -38 -40 -69 -66 -70 -58 0 16 48 96 125 208 56 81 70 73 35 -21z m-442
-25 c24 -37 10 -25 -58 45 l-65 67 54 -45 c30 -25 61 -55 69 -67z m-1362 -50
c175 -73 265 -125 323 -189 57 -61 115 -155 109 -173 -2 -7 -459 341 -507 386
-9 9 10 3 75 -24z m2724 -70 c0 -5 -10 -18 -22 -29 -18 -16 -28 -19 -47 -12
-27 11 -27 12 14 33 33 17 55 20 55 8z m-3441 -33 c34 -12 60 -23 58 -25 -2
-2 -35 7 -73 20 -38 14 -64 25 -58 25 5 1 38 -8 73 -20z m167 -64 c117 -49
251 -117 238 -122 -6 -2 -42 14 -80 36 -38 22 -109 56 -159 76 -49 21 -92 39
-94 41 -11 10 17 1 95 -31z m417 -1 c61 -20 139 -47 172 -61 88 -36 305 -146
305 -154 0 -9 -105 15 -202 47 -115 38 -439 203 -400 204 7 0 63 -16 125 -36z
m2322 -13 c-3 -6 -18 -11 -33 -10 l-27 1 30 13 c32 14 41 13 30 -4z m394 -5
c-2 -2 -35 -25 -72 -50 -67 -46 -141 -71 -191 -64 -25 3 -25 3 17 51 41 48 43
49 117 56 92 10 135 12 129 7z m-1032 -43 c6 -16 18 -45 27 -65 l16 -38 -40
-20 -40 -20 0 54 c0 60 9 116 19 116 4 0 12 -12 18 -27z m1713 2 c-14 -8 -29
-14 -35 -14 -5 0 1 6 15 14 14 8 30 14 35 14 6 0 -1 -6 -15 -14z m-100 -45
c-30 -16 -59 -29 -65 -29 -5 0 15 13 45 29 30 16 60 29 65 29 6 0 -15 -13 -45
-29z m-1031 5 c-3 -2 -66 -31 -140 -63 -74 -33 -176 -80 -227 -106 -50 -25
-92 -42 -92 -36 0 14 180 103 325 161 112 45 145 56 134 44z m536 -44 c-32
-31 -450 -360 -453 -356 -6 5 55 119 90 167 65 90 218 188 313 198 33 4 62 8
65 9 2 0 -4 -8 -15 -18z m-416 -158 c-207 -212 -273 -352 -298 -628 -14 -150
-30 -182 -126 -254 -60 -45 -83 -57 -91 -48 -6 7 -48 75 -94 152 -46 77 -105
173 -132 213 l-49 73 32 52 c122 199 270 319 539 438 103 46 296 118 319 118
8 1 -37 -52 -100 -116z m-1556 43 c51 -41 62 -70 25 -64 -21 3 -98 91 -98 112
0 9 3 8 73 -48z m-468 4 c50 -6 128 -20 174 -31 73 -17 93 -26 153 -75 64 -51
85 -84 55 -84 -7 0 -53 16 -103 36 -49 20 -127 44 -174 54 -70 14 -271 88
-289 105 -8 8 90 5 184 -5z m1401 -133 c-3 -18 -25 -57 -48 -87 -23 -30 -70
-92 -104 -137 -33 -45 -64 -80 -68 -76 -12 12 -5 68 13 110 54 118 200 284
209 237 2 -9 1 -30 -2 -47z m-881 -224 c178 -72 325 -158 435 -253 43 -38 38
-38 -142 0 -181 38 -222 53 -250 93 -12 18 -63 74 -112 126 -102 105 -103 104
69 34z m455 -58 c0 -1 -6 -8 -14 -14 -12 -10 -19 -5 -40 26 -36 53 -32 60 14
23 22 -17 40 -33 40 -35z m-544 -97 c45 -47 73 -93 62 -103 -1 -1 -38 30 -81
69 -56 53 -76 77 -71 89 8 23 28 11 90 -55z m-836 -10 c19 -16 28 -26 20 -22
-24 13 -110 75 -110 81 0 7 53 -27 90 -59z m1498 13 c24 -21 28 -36 12 -46
-18 -11 -50 15 -50 40 0 30 7 31 38 6z m-296 -146 c58 -7 124 -18 145 -24 21
-5 57 -15 81 -21 46 -12 57 -30 17 -30 -13 0 -60 -7 -103 -16 -78 -15 -82 -15
-213 11 -74 15 -143 32 -153 37 -18 10 -18 11 5 29 23 17 48 24 94 27 11 1 68
-5 127 -13z m453 -43 c-8 -9 -35 26 -35 46 0 9 8 4 21 -12 12 -15 18 -30 14
-34z m1275 38 c0 -20 -59 -38 -152 -45 -54 -4 -98 -4 -98 -1 0 10 50 39 83 46
47 12 167 12 167 0z m-2531 -66 c88 -25 205 -89 240 -131 38 -46 71 -115 71
-148 0 -14 -2 -25 -5 -25 -6 0 -427 300 -445 318 -13 12 -9 13 35 8 28 -4 74
-14 104 -22z m381 -51 c0 -10 -5 -25 -10 -33 -7 -11 -10 -7 -10 18 0 17 5 32
10 32 6 0 10 -8 10 -17z m1874 -41 c-61 -32 -124 -68 -141 -80 -16 -11 -59
-32 -96 -46 l-66 -25 -7 22 c-6 18 4 31 51 74 36 33 74 58 99 64 43 12 230 47
256 48 8 0 -35 -26 -96 -57z m324 46 c-3 -7 -35 -20 -73 -29 -53 -14 -65 -14
-54 -4 38 37 137 63 127 33z m-1804 -15 c13 -8 -16 -23 -44 -23 -14 0 -43 9
-65 20 l-40 20 70 -6 c39 -3 74 -8 79 -11z m361 -14 c11 -17 3 -18 -60 -4
l-60 13 57 1 c31 1 60 -4 63 -10z m749 -19 c-18 -16 -84 -39 -89 -30 -3 5 16
20 42 34 27 13 50 20 52 14 2 -5 -1 -13 -5 -18z m-1346 -52 c-5 -45 -13 -67
-22 -57 -8 10 7 118 16 113 6 -4 8 -29 6 -56z m392 48 c61 -19 29 -32 -43 -19
-49 9 -51 10 -27 21 14 6 25 11 25 11 0 0 20 -6 45 -13z m-500 -63 c0 -20 -3
-24 -11 -16 -7 7 -9 19 -6 27 10 24 17 19 17 -11z m1445 -5 c-14 -49 -56 -125
-82 -150 -35 -33 -196 -148 -201 -144 -2 2 -10 28 -17 57 -13 48 -13 57 3 88
10 20 38 47 72 67 53 32 206 104 223 104 5 0 5 -10 2 -22z m-585 -18 c6 -11 8
-20 6 -20 -3 0 -10 9 -16 20 -6 11 -8 20 -6 20 3 0 10 -9 16 -20z m1065 11
c-6 -5 -89 -53 -185 -106 -96 -54 -178 -99 -182 -101 -4 -3 -9 0 -12 5 -6 9
110 88 184 126 35 18 191 84 200 85 2 0 0 -4 -5 -9z m-1285 -30 c62 -20 68
-17 -84 -45 -49 -10 -116 -28 -149 -42 -33 -13 -64 -24 -69 -24 -4 0 -8 25 -8
55 0 51 2 55 28 61 15 3 32 7 37 9 33 11 196 2 245 -14z m394 -92 c9 -15 12
-30 7 -33 -7 -5 -72 91 -88 129 -8 17 64 -67 81 -96z m-1511 27 c35 -14 106
-88 90 -93 -13 -5 -89 40 -133 77 -32 27 -33 29 -12 30 12 0 37 -6 55 -14z
m487 -37 c0 -4 -7 -12 -16 -20 -13 -10 -17 -10 -25 2 -5 8 -7 20 -4 27 3 8 5
21 5 30 0 13 5 11 20 -8 11 -14 20 -28 20 -31z m1425 -77 c-60 -59 -135 -136
-165 -171 l-55 -63 -12 28 c-7 16 -12 38 -13 49 0 24 101 126 173 175 42 27
162 89 177 89 3 0 -44 -48 -105 -107z m-1627 62 c64 -41 259 -234 311 -308
l34 -49 -28 7 c-106 27 -209 116 -284 244 -23 40 -56 88 -73 107 -16 19 -27
35 -24 35 4 0 33 -16 64 -36z m985 9 c60 -16 83 -38 134 -123 22 -37 73 -178
73 -203 0 -10 -17 -16 -58 -20 -75 -6 -102 -21 -185 -101 -61 -59 -70 -64 -93
-56 -119 46 -289 256 -301 373 -5 50 -3 55 22 75 36 28 126 61 195 71 66 10
134 5 213 -16z m296 -93 c5 -16 8 -30 6 -30 -3 0 -11 14 -20 30 -9 17 -11 30
-6 30 5 0 14 -13 20 -30z m841 -14 c0 -3 -74 -46 -165 -96 -112 -62 -171 -90
-183 -85 -14 6 -6 17 43 62 69 64 98 78 209 103 93 21 96 21 96 16z m-829
-161 c41 -84 38 -94 -17 -79 -17 4 -26 21 -39 67 -26 92 -33 125 -27 131 8 9
51 -53 83 -119z m399 0 c-33 -34 -60 -45 -60 -26 0 9 77 61 89 61 3 0 -10 -16
-29 -35z m-1625 -25 c22 -23 26 -33 17 -42 -13 -13 -12 -15 -40 35 -26 45 -16
48 23 7z m1784 -120 c-98 -96 -116 -110 -145 -110 -19 0 -34 3 -34 7 0 16 54
74 101 109 50 37 167 103 182 104 4 0 -43 -49 -104 -110z m-259 29 c-13 -24
-31 -32 -60 -27 -19 3 -20 4 -5 26 11 14 26 22 46 22 27 0 29 -2 19 -21z
m-1265 -7 c25 -5 41 -13 43 -24 2 -13 -13 -18 -85 -27 -48 -7 -98 -14 -110
-16 -15 -4 -29 4 -47 26 -14 17 -24 35 -20 40 6 10 160 11 219 1z m994 -23
c-19 -28 -33 -29 -37 -1 -3 18 1 22 24 22 24 0 25 -1 13 -21z m-1370 -38 c11
-7 4 -12 -25 -20 -47 -13 -84 -14 -84 -3 0 24 81 40 109 23z m1552 -38 c-5
-10 -20 -28 -34 -41 l-24 -23 -7 23 c-12 46 -10 48 62 57 9 1 10 -4 3 -16z
m488 -53 c-72 -67 -76 -69 -126 -70 -29 0 -53 3 -53 6 0 17 24 45 56 64 31 20
163 68 188 70 5 0 -24 -31 -65 -70z m-1626 53 c-13 -2 -35 -2 -50 0 -16 2 -5
4 22 4 28 0 40 -2 28 -4z m1002 -25 c13 -60 12 -63 -20 -60 -17 2 -39 15 -52
30 -28 34 -28 40 0 45 53 10 67 7 72 -15z m-1092 -10 c38 -11 39 -13 16 -19
-13 -3 -36 0 -51 8 -50 25 -31 31 35 11z m911 -17 l28 -29 -49 -4 c-35 -3 -51
0 -60 11 -14 19 -8 29 21 41 30 13 30 13 60 -19z m-1065 0 c8 -15 7 -20 -6
-25 -18 -7 -56 21 -47 35 9 16 43 9 53 -10z m-121 -36 c7 -7 -33 -6 -52 1 -9
3 -16 10 -16 14 0 8 58 -4 68 -15z m1680 -21 c-21 -22 -113 -33 -106 -13 5 15
42 26 93 28 27 1 28 0 13 -15z m-239 -55 l-33 -41 -27 33 c-15 19 -26 35 -24
37 5 5 109 19 114 16 2 -2 -11 -22 -30 -45z m-1024 19 l39 -15 -29 -5 c-17 -4
-74 -12 -128 -19 l-97 -12 -30 28 c-17 16 -30 33 -30 38 0 14 229 2 275 -15z
m-309 -27 c36 -32 30 -41 -31 -41 -26 0 -39 7 -54 29 -16 22 -18 31 -9 34 31
13 63 5 94 -22z m1194 -7 c36 -41 53 -81 45 -102 -4 -10 -21 7 -55 55 -28 39
-50 74 -50 77 0 18 32 1 60 -30z m-755 -69 c87 -23 213 -88 265 -135 l45 -41
-55 29 c-30 16 -99 53 -153 82 -54 28 -99 50 -101 49 -1 -2 -15 -37 -30 -76
l-28 -73 -28 15 c-37 19 -37 19 -44 -8 -3 -13 -13 -41 -22 -62 l-16 -38 -43
91 c-24 50 -57 111 -74 136 l-31 45 32 4 c60 9 222 -2 283 -18z m-326 -59 c12
-23 21 -60 21 -82 l-1 -39 -69 74 c-39 41 -70 78 -70 82 0 12 74 26 87 17 7
-5 21 -29 32 -52z m973 -134 l-29 -31 -22 30 -22 30 28 51 28 51 22 -50 23
-51 -28 -30z m801 102 c-18 -7 -40 -11 -50 -7 -16 6 -15 8 7 14 14 4 36 7 50
7 23 0 23 -1 -7 -14z m-1254 -95 l121 -71 -20 -39 c-11 -21 -23 -39 -26 -39
-4 0 -49 23 -100 51 l-94 50 0 44 c0 24 -3 50 -6 59 -3 9 -4 16 -1 16 3 0 59
-32 126 -71z m361 -93 c0 -6 -7 -2 -15 8 -8 11 -15 25 -15 30 0 6 7 2 15 -8 8
-11 15 -25 15 -30z m280 7 c-1 -18 -18 -35 -24 -24 -4 6 -4 16 -1 21 7 12 25
13 25 3z m-1101 -112 l0 -36 -25 54 c-30 67 -30 70 1 41 18 -17 25 -34 24 -59z
m729 -1 c-18 -33 -36 -60 -41 -60 -4 0 9 31 30 70 21 38 39 65 41 60 2 -5 -11
-37 -30 -70z m672 45 c0 -3 -14 -27 -31 -55 -27 -44 -35 -50 -63 -50 -34 0
-94 17 -110 31 -12 10 63 47 132 63 67 17 72 18 72 11z m-961 -41 l60 -36 -21
-43 c-20 -42 -22 -43 -52 -33 -17 6 -34 13 -37 17 -9 8 -23 131 -16 131 3 0
33 -16 66 -36z m540 -39 c-14 -14 -28 12 -21 37 5 20 6 19 18 -3 8 -16 9 -27
3 -34z m-95 -7 c8 -33 8 -35 -11 -41 -10 -2 -26 -8 -35 -12 -15 -6 -14 -1 5
34 25 47 32 50 41 19z m-969 -64 l40 -35 -30 6 c-29 6 -65 37 -65 56 0 16 14
9 55 -27z m1099 10 c3 -8 2 -12 -4 -9 -6 3 -10 10 -10 16 0 14 7 11 14 -7z
m250 10 c55 -8 59 -23 17 -65 -23 -23 -38 -29 -71 -29 -75 0 -113 34 -94 84 7
17 64 21 148 10z m-604 -44 c0 -19 -32 -60 -46 -60 -10 0 -8 9 7 35 20 34 39
46 39 25z m1391 -17 c13 -16 12 -17 -3 -4 -10 7 -18 15 -18 17 0 8 8 3 21 -13z
m-606 -13 c3 -5 -3 -10 -15 -10 -12 0 -18 5 -15 10 3 6 10 10 15 10 5 0 12 -4
15 -10z m-377 -62 c2 -11 -8 -23 -29 -33 -33 -18 -32 -18 -156 20 -7 3 -10 11
-7 20 10 24 187 18 192 -7z m232 -38 c19 -16 29 -29 23 -30 -7 0 -27 13 -45
30 -43 38 -23 39 22 0z m-1161 -54 c-7 -7 -109 -46 -109 -42 0 3 -3 11 -6 20
-4 12 4 16 43 19 26 2 54 4 62 5 8 1 12 0 10 -2z m1112 -12 c11 -14 6 -15 -50
-8 -116 13 -133 22 -45 23 63 1 85 -3 95 -15z m-1291 -19 c0 -19 -21 -19 -46
0 -18 14 -17 14 14 15 22 0 32 -5 32 -15z m790 -31 c-30 -14 -65 -24 -78 -22
-21 3 -22 4 -7 26 14 19 25 22 78 21 l62 0 -55 -25z m-933 -19 c-4 -8 -11 -15
-17 -15 -7 0 -7 6 0 21 13 23 26 19 17 -6z m1106 -17 c-19 -19 -27 -20 -65
-11 l-43 9 45 11 c25 6 54 11 65 12 19 1 19 0 -2 -21z m760 -22 c43 -10 34
-29 -10 -21 -21 4 -41 9 -46 12 -11 7 2 23 16 18 7 -2 24 -6 40 -9z m-1705
-68 c2 -10 -7 -18 -24 -22 -14 -4 -28 -6 -29 -4 -4 4 -8 30 -6 45 2 17 55 0
59 -19z m867 12 c-17 -16 -29 -19 -72 -14 -38 5 -50 10 -46 20 4 10 24 14 71
14 66 0 66 0 47 -20z m-566 -16 c9 -9 -5 -12 -31 -7 -16 3 -28 10 -28 15 0 9
49 3 59 -8z m1456 -16 c3 -2 8 -18 11 -35 l6 -31 -68 17 c-69 17 -96 43 -57
55 20 5 101 1 108 -6z m-414 -269 l63 -71 -19 -35 c-11 -19 -25 -37 -31 -40
-11 -4 -243 54 -253 63 -7 7 61 104 91 129 51 43 77 35 149 -46z m-820 10 l24
-20 -25 7 c-14 3 -32 12 -40 20 -25 24 14 18 41 -7z m1360 -19 l44 -41 -35 7
c-20 3 -50 20 -70 40 l-35 34 26 0 c17 0 42 -15 70 -40z m-2007 3 c4 -4 -26
-20 -66 -35 -84 -32 -78 -31 -78 -18 0 5 21 21 48 34 47 25 83 32 96 19z
m2114 -79 c-9 -9 -21 -13 -28 -9 -14 9 5 25 30 25 12 0 12 -3 -2 -16z m-1388
-41 c-1 -27 -1 -27 -15 -9 -14 19 -12 36 6 36 5 0 9 -12 9 -27z m-600 7 c0 -5
-12 -10 -27 -10 -22 0 -25 2 -13 10 20 13 40 13 40 0z m1164 -35 c101 -58 108
-65 83 -99 -13 -18 -17 -18 -103 4 -49 13 -93 27 -98 31 -14 12 23 99 41 99 9
0 44 -16 77 -35z m-631 -22 c40 -78 25 -100 -20 -32 -22 34 -24 42 -12 50 19
12 17 13 32 -18z m-1155 5 c7 -10 -6 -40 -49 -113 l-59 -100 0 41 c0 63 25
135 57 160 33 27 37 28 51 12z m2741 -44 c17 -14 31 -33 31 -41 0 -11 -12 -5
-39 18 -22 19 -40 37 -40 42 -2 14 18 7 48 -19z m-1709 -74 c15 -30 37 -98 49
-150 12 -52 36 -129 54 -170 l33 -75 -76 0 c-105 -1 -152 -24 -253 -127 -61
-62 -83 -78 -85 -65 -7 34 29 237 59 339 34 115 96 254 136 306 25 33 27 34
40 16 8 -10 27 -44 43 -74z m310 -49 c-40 -82 -51 -90 -64 -46 -5 16 0 23 24
32 35 13 60 62 61 120 l1 38 9 -30 c7 -25 2 -43 -31 -114z m740 85 c6 -26 5
-36 -4 -36 -7 0 -19 -15 -28 -32 l-16 -33 -7 29 c-6 22 -2 40 15 73 13 24 25
41 27 39 3 -2 8 -21 13 -40z m-1454 25 c-7 -11 -105 -26 -113 -18 -7 8 54 25
90 26 16 1 26 -3 23 -8z m1594 -90 c30 -44 39 -94 20 -106 -14 -9 -47 50 -70
124 -11 35 -20 66 -20 70 1 8 32 -31 70 -88z m391 1 c12 -21 9 -26 -22 -58
l-36 -35 -32 61 -33 62 28 29 29 30 27 -33 c15 -18 33 -43 39 -56z m-1807 -9
c-35 -26 -44 -9 -23 44 l11 28 15 -29 c14 -27 14 -30 -3 -43z m856 10 c128
-41 166 -68 156 -109 -18 -71 -150 -236 -214 -268 -61 -30 -150 -61 -157 -55
-2 3 -33 66 -69 140 -71 149 -71 153 -8 212 l30 29 7 -51 c5 -40 11 -51 25
-51 47 0 90 69 90 146 0 29 6 44 19 44 3 0 58 -17 121 -37z m-529 10 c13 -16
12 -17 -3 -4 -10 7 -18 15 -18 17 0 8 8 3 21 -13z m-551 -43 c0 -6 -37 -10
-92 -9 -62 1 -85 4 -68 9 37 12 160 12 160 0z m2198 -89 c55 -74 94 -138 116
-193 14 -34 14 -38 -3 -59 l-18 -23 -18 35 c-51 98 -152 329 -140 319 8 -7 37
-42 63 -79z m-1583 25 c13 -30 32 -92 41 -138 9 -45 25 -102 35 -126 23 -53
23 -51 0 -45 -28 7 -131 234 -131 289 0 26 16 74 25 74 3 0 17 -24 30 -54z
m1686 -54 c11 -35 19 -65 16 -68 -6 -6 -67 142 -67 163 1 27 25 -18 51 -95z
m-476 -13 c4 -15 1 -37 -5 -49 -11 -21 -12 -20 -50 10 -22 17 -42 35 -44 39
-3 4 4 27 16 51 l20 45 28 -34 c16 -19 32 -47 35 -62z m286 47 c61 -100 99
-218 99 -308 0 -43 -3 -49 -37 -72 l-36 -25 -43 37 c-23 20 -90 78 -148 127
-58 50 -105 95 -105 100 0 6 19 24 42 42 99 75 192 143 197 143 3 0 17 -20 31
-44z m-2843 -21 c2 -2 -9 -22 -24 -46 -25 -40 -27 -42 -40 -24 -8 10 -14 36
-14 56 l0 37 38 -10 c20 -5 38 -11 40 -13z m2277 -62 c16 -53 4 -55 -29 -7
-24 35 -24 38 -8 62 15 24 17 24 21 7 2 -11 9 -39 16 -62z m-155 -11 c0 -42
-122 -214 -210 -297 l-33 -30 7 40 c7 39 104 236 161 324 l28 45 23 -28 c13
-15 24 -39 24 -54z m-1533 37 c35 0 67 3 73 6 15 9 13 2 -19 -88 -38 -108 -61
-216 -64 -299 -1 -37 -4 -68 -7 -68 -3 0 -14 14 -24 31 -23 39 -72 69 -112 69
-31 0 -31 0 -37 -66 -7 -73 -12 -83 -29 -66 -7 7 -23 12 -36 12 -23 0 -24 2
-17 48 10 69 39 180 85 324 l40 127 43 -15 c23 -8 70 -15 104 -15z m-491 -116
c-1 -1 -7 2 -14 6 -9 5 -11 20 -5 52 l7 44 7 -50 c3 -27 5 -51 5 -52z m2363
-37 c-7 -14 -16 -26 -21 -26 -13 0 -66 79 -73 110 -11 51 4 50 55 -5 47 -49
50 -54 39 -79z m-100 -101 c157 -168 206 -248 182 -294 -10 -19 -111 -94 -267
-199 l-61 -41 -133 156 -133 156 28 56 c15 31 68 125 118 210 l91 153 45 -53
c25 -30 84 -94 130 -144z m-2441 160 c6 -6 -58 -115 -68 -115 -17 0 -20 19 -8
75 11 56 11 57 41 51 17 -3 32 -8 35 -11z m292 -85 c0 -28 -13 -40 -24 -22 -7
12 5 52 15 52 5 0 9 -13 9 -30z m-170 -13 c35 -17 49 -66 49 -178 l1 -97 -67
-4 c-78 -4 -159 -37 -216 -88 -21 -18 -39 -31 -41 -29 -11 11 40 165 84 253
83 167 85 169 128 161 20 -4 48 -12 62 -18z m2523 -36 c27 -31 58 -73 70 -91
l22 -35 -30 22 c-16 12 -54 44 -84 70 -44 40 -53 53 -47 71 4 12 10 22 14 21
4 0 29 -26 55 -58z m-2353 -110 c0 -25 -3 -70 -7 -99 -6 -51 -7 -53 -32 -47
-14 4 -27 7 -28 8 -3 4 18 192 22 206 4 11 9 10 25 -4 14 -13 20 -31 20 -64z
m1125 45 c35 -15 48 -32 59 -78 l6 -27 -72 33 c-40 18 -84 37 -97 43 -24 9
-24 9 10 26 42 20 51 21 94 3z m334 -10 c-2 -2 -20 -11 -39 -20 l-35 -17 25
20 c14 11 31 21 39 21 8 0 12 -2 10 -4z m1431 -52 c0 -20 -9 -52 -21 -70 -25
-40 -94 -103 -143 -129 -36 -19 -36 -19 -57 1 l-21 21 22 34 c21 31 195 177
213 178 4 1 7 -15 7 -35z m-1308 -76 c-17 -17 -25 -3 -17 29 l7 28 11 -23 c7
-16 7 -26 -1 -34z m-2061 5 c-8 -15 -10 -15 -11 -2 0 17 10 32 18 25 2 -3 -1
-13 -7 -23z m1484 18 c17 -7 14 -10 -20 -20 -22 -7 -58 -25 -80 -39 l-39 -25
18 29 c37 59 71 74 121 55z m333 -63 c6 -21 9 -38 7 -38 -2 0 -22 11 -45 24
l-41 23 28 21 c32 24 37 21 51 -30z m91 23 c25 -35 26 -44 5 -39 -17 3 -49 68
-34 68 5 0 18 -13 29 -29z m1611 -68 c42 -137 49 -280 19 -387 l-11 -40 -30
57 -31 57 -40 -30 -40 -29 -57 62 c-31 34 -71 78 -88 98 l-32 37 38 41 c37 41
231 200 244 201 4 0 16 -30 28 -67z m-2687 -46 c38 -38 65 -92 52 -105 -4 -4
-21 9 -38 29 -35 41 -65 59 -96 59 -26 0 -26 2 2 51 19 35 23 37 32 22 6 -10
27 -35 48 -56z m-897 -135 l-31 -33 -13 44 c-12 42 -11 49 14 104 l26 58 18
-70 17 -70 -31 -33z m1564 123 c-24 -25 -46 -45 -49 -45 -3 0 15 20 39 45 24
25 46 45 49 45 3 0 -15 -20 -39 -45z m217 12 l32 -22 -42 -45 c-107 -115 -162
-170 -169 -170 -11 0 -10 54 2 86 6 15 34 63 63 106 55 84 56 85 114 45z m358
-213 c63 -130 115 -240 115 -243 0 -4 -66 -33 -147 -64 l-146 -56 -81 68 c-45
38 -110 96 -146 129 l-65 60 37 53 c21 30 58 77 83 106 52 60 202 183 222 183
8 0 64 -104 128 -236z m-1725 196 c0 -28 -2 -29 -32 -23 -18 3 -42 9 -53 13
-18 6 -17 8 10 23 17 9 40 16 53 17 18 0 22 -5 22 -30z m95 -50 c24 -47 35
-80 27 -80 -9 0 -52 84 -52 100 0 18 9 10 25 -20z m2443 -47 l31 -48 -21 -22
c-22 -23 -331 -243 -342 -243 -3 0 -6 14 -6 32 0 27 20 51 147 180 81 81 150
148 154 148 4 0 20 -21 37 -47z m-2190 -80 c-4 -58 -10 -79 -26 -95 l-20 -21
-21 41 c-23 46 -20 62 26 141 22 38 27 42 36 26 5 -10 7 -51 5 -92z m-432 73
c18 -14 18 -15 -9 -25 -16 -6 -32 -11 -37 -11 -4 0 -31 -15 -59 -34 -28 -19
-51 -32 -51 -28 0 4 14 31 30 60 28 48 33 52 68 52 21 0 47 -6 58 -14z m582
-86 c28 -38 85 -67 173 -88 l70 -18 -131 -119 c-73 -66 -136 -119 -141 -117
-14 3 -141 82 -157 97 -10 9 -6 25 23 79 55 105 116 196 129 196 7 0 22 -13
34 -30z m-480 -90 c24 -78 35 -161 25 -176 -5 -6 -28 -24 -53 -41 -25 -17 -86
-67 -137 -112 -50 -44 -94 -81 -97 -81 -3 0 -8 15 -11 34 -8 42 24 174 58 242
56 110 166 230 188 206 4 -4 16 -36 27 -72z m2655 -27 c103 -160 117 -187 117
-229 0 -46 -11 -64 -105 -173 -64 -74 -73 -81 -107 -81 -20 0 -43 3 -52 6 -19
7 -236 240 -236 254 0 13 299 320 312 320 4 0 37 -44 71 -97z m174 32 c14 -26
11 -25 -20 10 -19 22 -32 44 -29 49 6 10 26 -14 49 -59z m-1736 6 l24 -19 -29
-31 c-16 -17 -33 -28 -38 -25 -17 10 -6 94 12 94 4 0 18 -9 31 -19z m-951 -80
c0 -11 -9 -29 -21 -42 -18 -22 -20 -22 -15 -4 3 11 8 32 12 47 7 30 24 29 24
-1z m730 -7 c17 -15 30 -30 28 -33 -5 -12 -310 -291 -318 -291 -9 0 -20 51
-20 97 0 83 107 196 227 239 50 17 47 18 83 -12z m-1270 -54 c-16 -31 -23 -19
-9 16 6 16 13 24 16 17 2 -7 -1 -22 -7 -33z m3489 -10 c21 -49 21 -51 4 -75
-10 -13 -22 -23 -26 -22 -5 1 -21 24 -35 49 l-27 47 24 25 c14 14 28 26 32 26
3 0 16 -23 28 -50z m243 18 c-9 -9 -12 -7 -12 12 0 19 3 21 12 12 9 -9 9 -15
0 -24z m-2012 -132 c22 -32 40 -63 40 -68 0 -12 -138 110 -151 134 -5 9 -9 32
-9 50 l1 33 40 -45 c22 -25 58 -71 79 -104z m-218 8 c116 -136 140 -180 146
-268 2 -41 2 -94 -2 -119 -7 -44 -8 -45 -74 -72 -37 -15 -113 -52 -168 -81
-56 -30 -106 -54 -112 -54 -18 0 -150 130 -185 183 -59 88 -99 175 -92 198 18
56 212 230 306 274 88 41 98 37 181 -61z m-1607 4 c8 -28 15 -81 15 -118 0
-70 19 -150 52 -213 33 -65 23 -70 -66 -31 -122 52 -119 49 -113 179 6 117 26
212 48 226 32 20 48 9 64 -43z m673 33 c8 -5 12 -21 10 -40 l-3 -31 -37 25
c-45 31 -50 55 -10 55 15 0 33 -4 40 -9z m3082 -61 c10 -25 10 -34 -4 -56 -23
-34 -46 -16 -46 36 0 76 23 85 50 20z m-3648 3 c52 -56 76 -213 39 -247 -18
-17 -20 -17 -29 1 -31 57 -66 273 -45 273 5 0 21 -12 35 -27z m3323 -66 c14
-53 -3 -94 -68 -164 -34 -37 -72 -81 -84 -98 l-22 -30 -1 36 c0 72 46 190 110
278 30 41 32 42 45 24 8 -11 17 -32 20 -46z m-2647 33 c16 -26 6 -46 -14 -29
-15 12 -20 49 -6 49 4 0 13 -9 20 -20z m1674 -9 c18 -16 31 -32 28 -34 -3 -3
-75 -32 -160 -65 -85 -33 -178 -69 -206 -80 -51 -20 -52 -21 -69 -2 -17 18
-14 21 54 65 89 58 268 145 298 145 13 0 37 -13 55 -29z m-1880 -29 c15 -15
-20 -64 -41 -57 -11 3 -26 -10 -49 -43 -18 -26 -72 -82 -120 -125 l-87 -78
-13 31 c-11 27 -10 36 9 73 52 102 121 186 169 206 30 13 117 8 132 -7z m3061
-49 c55 -126 61 -158 49 -258 -12 -92 -28 -155 -41 -155 -6 0 -40 215 -57 357
-6 54 2 113 15 113 5 0 20 -26 34 -57z m185 -70 c18 -91 25 -188 18 -227 l-7
-36 -38 19 c-36 19 -38 23 -45 82 -12 120 -8 159 20 196 14 18 29 31 33 28 5
-2 13 -30 19 -62z m-1220 -70 c44 -71 92 -151 107 -178 28 -50 28 -51 11 -87
-26 -55 -216 -225 -261 -234 -38 -7 -92 1 -132 19 -14 6 -79 81 -145 167
l-120 155 44 39 c67 60 181 134 297 192 58 30 109 54 113 54 4 0 42 -57 86
-127z m947 39 c24 -116 28 -227 12 -317 -20 -112 -51 -180 -88 -195 -16 -7
-31 -11 -33 -9 -18 18 -136 248 -136 264 1 31 42 125 80 180 53 78 132 167
141 158 5 -5 15 -41 24 -81z m-2563 51 c32 -31 35 -43 11 -43 -27 1 -53 25
-53 49 0 28 8 27 42 -6z m-312 3 c0 -2 -3 -11 -6 -20 -5 -12 -10 -13 -25 -5
-23 12 -16 29 12 29 10 0 19 -2 19 -4z m-10 -83 c0 -5 -14 -24 -31 -43 -17
-19 -28 -27 -25 -17 3 10 6 30 6 43 0 19 5 24 25 24 14 0 25 -3 25 -7z m158
-17 c15 -15 9 -36 -11 -36 -7 0 -34 14 -62 31 l-50 31 54 -6 c30 -3 61 -12 69
-20z m-262 -54 l12 -57 -46 -65 c-56 -80 -51 -74 -57 -69 -2 3 2 25 9 49 7 25
17 72 20 105 7 59 31 113 44 100 4 -3 12 -32 18 -63z m2489 18 c0 -14 -52 -57
-60 -49 -2 3 6 19 18 37 22 31 42 37 42 12z m-2870 -70 c-9 -18 -19 -30 -21
-27 -3 3 2 19 11 37 9 18 19 30 21 27 3 -3 -2 -19 -11 -37z m752 -47 c12 -33
25 -77 28 -97 l7 -36 -114 0 -114 0 -29 -60 c-26 -55 -32 -60 -60 -60 -25 0
-35 -6 -44 -27 l-12 -27 -34 39 c-59 70 -61 78 -35 135 13 28 31 57 41 66 16
14 17 12 24 -28 10 -64 15 -78 30 -78 15 0 22 26 35 123 7 59 13 76 35 95 25
21 35 22 123 20 l97 -3 22 -62z m2231 -3 c14 -23 8 -40 -14 -40 -9 0 -14 11
-14 30 0 35 10 38 28 10z m-1258 -26 l0 -37 -21 28 c-18 22 -20 29 -8 36 24
15 29 10 29 -27z m-1883 -25 c34 -21 40 -47 9 -41 -37 7 -107 42 -101 52 10
17 56 11 92 -11z m223 -8 c0 -33 -10 -44 -28 -32 -10 6 -10 13 -1 34 16 35 29
34 29 -2z m1461 -5 c-7 -8 -42 -26 -79 -41 -103 -42 -105 -39 -7 9 103 51 101
51 86 32z m312 -36 c10 -16 16 -30 13 -30 -2 0 -14 14 -26 30 -12 17 -18 30
-13 30 5 0 17 -13 26 -30z m1791 11 c16 -17 16 -22 1 -56 -8 -21 -17 -36 -19
-34 -8 10 -16 109 -8 109 5 0 17 -9 26 -19z m-3401 -97 c-11 -18 -19 -21 -36
-15 -19 7 -22 17 -24 67 l-3 59 39 -44 c37 -42 38 -46 24 -67z m1438 50 c26
-43 31 -39 -101 -94 -47 -20 -134 -62 -195 -93 -119 -62 -114 -62 -154 4 l-21
37 22 14 c70 46 362 165 410 167 9 1 26 -15 39 -35z m1036 -21 c10 -43 -7 -68
-122 -183 l-115 -115 0 37 c0 30 17 60 103 177 91 125 103 139 115 123 7 -9
15 -27 19 -39z m223 -50 c62 -96 105 -198 136 -322 19 -74 22 -96 12 -103 -68
-45 -310 -189 -312 -187 -1 2 -47 58 -102 124 -55 66 -104 126 -108 132 -7 13
298 433 316 433 5 0 31 -35 58 -77z m-2895 14 c-4 -8 -13 -13 -21 -10 -15 5
-19 35 -7 47 11 11 34 -19 28 -37z m777 -27 l5 -30 -119 0 -118 0 17 26 c14
22 22 25 52 22 20 -3 59 -2 86 2 28 4 55 8 61 9 7 0 14 -12 16 -29z m2718 -68
c-18 -72 -69 -159 -119 -203 -47 -42 -67 -45 -85 -17 -8 14 7 43 88 163 94
139 99 145 113 125 13 -18 13 -29 3 -68z m-1716 -77 c98 -156 101 -178 41
-250 -22 -25 -59 -70 -82 -98 -23 -28 -51 -54 -61 -58 -11 -4 -59 -10 -108
-14 l-89 -7 -102 164 c-56 91 -105 172 -108 180 -7 18 98 93 182 130 74 33
227 87 238 84 5 -1 45 -60 89 -131z m-1697 98 c33 -44 126 -186 172 -265 l50
-88 -118 0 -119 0 -37 77 c-38 75 -38 77 -26 134 11 58 49 159 59 159 3 0 11
-8 19 -17z m-297 -124 c0 -160 43 -300 125 -409 l26 -35 -58 -3 c-82 -5 -115
4 -151 39 -56 55 -77 113 -74 204 3 122 49 270 97 318 28 28 35 6 35 -114z
m96 90 c20 -22 32 -75 58 -259 9 -58 20 -120 26 -139 31 -107 -53 9 -96 132
-23 65 -35 165 -28 228 4 33 10 59 14 59 4 0 15 -9 26 -21z m455 -51 c6 -15 8
-36 4 -45 -6 -16 -8 -15 -20 8 -8 15 -19 46 -24 70 l-10 44 19 -25 c11 -14 24
-37 31 -52z m482 30 c38 -20 -33 -38 -150 -38 l-104 0 -34 -75 c-19 -41 -37
-75 -39 -75 -3 0 -13 14 -22 32 -19 36 -14 96 10 133 14 21 25 25 69 26 28 0
75 4 102 9 57 9 139 4 168 -12z m2273 -61 c14 -27 24 -50 22 -52 -2 -2 -20 29
-41 68 -21 40 -31 63 -22 52 9 -11 28 -42 41 -68z m-2865 21 c30 -40 31 -41 5
-18 -26 24 -52 60 -42 60 2 0 19 -19 37 -42z m3364 -104 c16 -79 20 -344 6
-377 -6 -16 -14 -8 -49 42 -24 33 -68 90 -99 126 l-56 66 84 124 c61 90 86
120 92 110 4 -8 14 -49 22 -91z m-1361 87 c10 -16 -61 -69 -103 -76 -55 -9
-68 1 -39 32 39 43 127 70 142 44z m-1349 -41 c-16 -4 -41 -8 -55 -8 -23 -1
-23 0 -5 8 11 5 36 8 55 8 l35 0 -30 -8z m-461 -74 c32 -55 17 -58 -26 -5 -19
23 -26 42 -22 53 8 20 12 17 48 -48z m201 44 c-10 -11 -20 -18 -23 -15 -7 6
18 35 31 35 5 0 2 -9 -8 -20z m1739 -77 c-14 -13 -29 -23 -35 -23 -15 0 -11
43 7 68 l15 22 19 -22 c19 -23 19 -23 -6 -45z m-1425 28 c39 -27 36 -39 -11
-51 -101 -25 -258 -106 -297 -153 -21 -26 -38 -20 -50 16 -24 76 -22 79 54
116 133 65 229 101 255 96 14 -3 36 -14 49 -24z m1264 -50 c10 -12 8 -13 -13
-7 -32 10 -72 38 -78 55 -5 16 72 -25 91 -48z m-1817 -43 c12 -24 12 -28 0
-28 -20 0 -35 22 -42 61 -5 33 -5 33 11 14 9 -11 23 -32 31 -47z m1634 -50 c0
-31 -10 -48 -58 -105 -32 -37 -80 -96 -107 -130 -50 -66 -65 -76 -65 -45 0 17
165 317 193 350 15 19 36 -22 37 -70z m-905 -70 c57 -83 95 -168 102 -228 7
-62 -12 -98 -110 -199 l-78 -82 -62 33 c-79 42 -171 129 -234 220 -56 81 -103
169 -103 193 0 16 103 71 275 146 l110 48 27 -32 c16 -18 48 -62 73 -99z
m1175 65 c83 -95 153 -215 178 -307 l10 -35 -74 -35 c-99 -47 -153 -85 -247
-175 l-79 -75 -88 94 c-49 52 -94 105 -101 117 -10 19 -5 34 51 130 75 129
170 271 196 295 24 21 62 37 91 37 13 1 36 -16 63 -46z m262 -96 c16 -33 28
-61 26 -63 -2 -2 -25 24 -51 58 -36 47 -47 69 -47 97 l0 36 22 -35 c11 -19 34
-61 50 -93z m827 11 c11 -34 19 -63 18 -65 -2 -1 -20 15 -41 36 -37 38 -38 39
-21 65 10 14 19 26 20 26 2 0 13 -28 24 -62z m-3313 -5 c-4 -4 -11 -1 -16 7
-16 25 -11 35 7 17 9 -9 13 -20 9 -24z m3119 15 c32 -15 32 -38 -2 -70 -35
-33 -373 -241 -380 -234 -7 7 63 121 100 163 49 56 203 152 244 153 7 0 24 -5
38 -12z m-2699 -66 c12 -9 27 -27 33 -39 11 -21 9 -23 -14 -23 -20 0 -29 8
-41 35 -21 52 -16 58 22 27z m2774 -57 c0 -3 15 -56 34 -119 45 -148 70 -270
61 -304 l-7 -27 -28 34 -29 34 -30 -24 c-16 -13 -69 -60 -117 -104 l-87 -80
-84 90 c-129 138 -124 124 -70 203 25 37 77 97 114 134 95 93 243 192 243 163z
m-3280 -44 c15 -29 12 -49 -7 -55 -10 -3 -70 -8 -134 -12 -110 -6 -118 -5
-128 13 -10 19 -4 22 82 46 116 32 172 34 187 8z m142 -114 c13 -43 3 -57 -39
-57 -20 0 -23 5 -23 39 0 21 3 53 7 71 l6 33 18 -24 c11 -13 24 -41 31 -62z
m343 -32 c16 -33 41 -84 54 -112 13 -28 47 -81 77 -116 l53 -65 -40 -27 c-22
-14 -58 -42 -80 -62 -35 -31 -44 -35 -78 -30 -22 3 -50 13 -63 23 -67 50 -155
197 -165 275 -3 21 -2 67 2 103 6 61 8 66 28 61 12 -3 40 -1 62 4 22 5 58 9
80 8 38 -2 41 -5 70 -62z m-560 32 c26 -12 65 -48 65 -59 0 -4 -30 -8 -67 -8
-52 0 -77 6 -108 23 -52 30 -58 54 -13 60 40 5 96 -2 123 -16z m1475 -62 c0
-48 -28 -93 -117 -187 -48 -51 -103 -112 -121 -135 -46 -59 -56 -55 -49 15 4
39 20 86 51 148 39 79 53 96 93 122 111 69 143 78 143 37z m-1385 -35 c9 -15
105 -474 100 -479 -3 -2 -27 -6 -54 -9 -62 -6 -124 22 -175 78 -60 67 -163
292 -154 337 2 13 34 25 128 50 141 36 146 37 155 23z m143 -87 c20 -37 78
-281 68 -290 -5 -6 -49 69 -76 129 -21 47 -60 188 -60 216 0 25 42 -9 68 -55z
m1487 0 c50 -68 109 -186 139 -275 14 -42 26 -81 26 -86 0 -5 -23 -3 -52 4
-82 22 -165 18 -224 -10 -45 -21 -134 -98 -134 -117 0 -3 -18 -18 -40 -33
l-39 -26 -69 98 c-38 53 -72 103 -76 109 -14 24 66 155 139 228 78 78 207 154
262 155 28 0 38 -8 68 -47z m890 -5 c28 -13 33 -28 9 -28 -28 0 -158 -66 -220
-112 -33 -25 -90 -73 -127 -108 -81 -75 -95 -65 -48 35 45 96 63 118 131 154
120 64 202 83 255 59z m254 -485 c6 -20 6 -47 0 -68 -9 -31 -14 -35 -44 -35
-60 0 -88 -19 -206 -139 l-116 -118 -137 153 -138 154 16 48 c56 168 220 323
401 378 l40 12 88 -176 c48 -97 91 -191 96 -209z m741 297 c-17 -37 -61 -100
-71 -100 -23 0 -7 68 28 118 35 51 37 53 45 31 6 -15 5 -33 -2 -49z m-2806 -9
c16 -18 15 -19 -35 -25 -28 -4 -53 -5 -56 -3 -4 5 57 47 68 47 3 0 14 -8 23
-19z m9 -97 c47 -16 83 -44 56 -44 -30 0 -138 -60 -188 -104 -51 -46 -66 -51
-108 -40 -20 6 -21 8 -8 43 25 72 75 140 108 150 48 14 89 13 140 -5z m2661 0
c9 -24 7 -28 -9 -14 -17 14 -20 30 -6 30 5 0 12 -7 15 -16z m-3451 -129 c20
-8 67 -15 104 -15 l68 0 -46 -30 c-25 -17 -72 -36 -104 -43 -55 -11 -58 -11
-77 13 -22 27 -61 102 -73 138 -6 21 -3 20 43 -12 27 -20 65 -43 85 -51z
m3237 13 c-58 -54 -65 -57 -79 -43 -14 14 -14 17 -1 25 8 5 40 26 70 48 30 21
59 37 64 34 6 -3 -19 -32 -54 -64z m356 -33 l-14 -40 -11 28 c-10 25 -8 33 11
56 29 35 35 14 14 -44z m-2627 6 c81 -85 175 -295 196 -433 7 -43 5 -48 -12
-48 -37 0 -119 50 -171 105 -29 30 -61 55 -71 55 -33 0 -61 -47 -61 -102 0
-49 0 -49 -22 -34 -30 21 -47 20 -75 -6 l-23 -22 -30 35 c-44 49 -84 108 -109
156 l-21 43 34 69 c42 83 136 187 191 212 22 10 60 19 84 19 41 0 49 -4 90
-49z m852 23 c30 -9 57 -19 61 -22 3 -4 9 -33 13 -65 l7 -59 -70 36 c-39 20
-98 43 -132 53 l-62 17 31 28 c37 33 72 36 152 12z m1668 -112 c33 -68 34 -71
17 -96 -9 -14 -20 -26 -24 -26 -4 0 -20 38 -36 86 -22 67 -25 88 -16 99 17 20
21 16 59 -63z m-3178 11 c16 -10 29 -20 29 -23 0 -14 -127 -80 -166 -86 -47
-7 -103 8 -148 39 l-28 20 73 22 c41 12 85 27 99 33 38 17 109 14 141 -5z
m3085 -69 c28 -126 -2 -282 -65 -344 -25 -25 -295 -220 -304 -220 -2 0 -28 39
-57 86 -48 78 -52 89 -40 108 30 49 203 256 262 314 65 64 154 130 175 131 7
1 19 -32 29 -75z m-1675 44 l64 -23 -66 -6 c-76 -6 -138 -38 -188 -94 -17 -20
-31 -33 -31 -30 0 9 40 86 69 132 31 51 54 54 152 21z m328 -53 c1 -16 -1 -17
-9 -5 -5 8 -9 31 -9 50 l1 35 8 -30 c4 -16 8 -39 9 -50z m961 -33 c0 -53 -38
-120 -89 -159 -48 -37 -71 -42 -71 -14 0 18 138 210 153 211 4 0 7 -17 7 -38z
m-2892 -39 c51 -3 81 1 126 16 33 12 61 20 63 18 1 -2 -15 -18 -37 -35 -56
-46 -89 -93 -115 -164 l-22 -61 -47 59 c-40 51 -126 200 -126 218 0 4 21 -5
46 -20 33 -20 63 -28 112 -31z m3593 10 c-11 -21 -27 -47 -36 -58 -14 -16 -2
9 42 88 2 4 6 7 9 7 2 0 -4 -17 -15 -37z m-1850 11 c102 -30 143 -59 211 -143
84 -105 141 -211 132 -246 -9 -36 -308 -321 -352 -336 -31 -10 -41 -8 -107 25
-87 43 -170 127 -217 219 -30 59 -30 64 -20 116 20 96 111 262 191 349 35 38
75 42 162 16z m-1381 -41 l22 -28 -33 -29 -33 -29 -13 38 c-11 34 -11 41 3 57
23 24 29 23 54 -9z m1759 -50 c47 -69 48 -74 15 -38 -49 54 -87 115 -70 115 2
0 27 -35 55 -77z m-1873 -95 c-4 -7 -18 -31 -32 -53 -24 -38 -25 -39 -19 -10
3 17 11 47 16 69 10 35 12 37 26 23 9 -8 13 -21 9 -29z m293 -89 c62 -84 72
-104 78 -150 l6 -54 -41 50 c-42 53 -92 144 -117 215 -26 73 -26 73 74 -61z
m-413 -4 c-7 -34 -19 -45 -31 -25 -7 11 24 75 32 66 3 -3 2 -21 -1 -41z m300
-27 c26 -35 39 -55 28 -45 -23 19 -88 107 -80 107 3 0 26 -28 52 -62z m18
-123 l106 -140 0 -117 c0 -89 -3 -118 -13 -118 -7 0 -41 17 -76 38 -74 43
-155 127 -201 207 -27 48 -31 61 -25 98 13 75 78 198 96 180 4 -4 55 -71 113
-148z m2081 136 c3 -6 -22 -39 -56 -76 l-62 -66 -23 22 c-13 13 -24 26 -24 31
0 4 24 19 53 32 28 13 61 33 71 45 21 23 32 26 41 12z m-1572 -32 c143 -47
152 -71 27 -71 -59 -1 -76 3 -98 21 -15 12 -35 24 -44 28 -11 3 -18 15 -18 29
0 32 21 31 133 -7z m2431 -46 c-40 -63 -53 -76 -149 -151 -103 -80 -218 -164
-200 -145 6 6 55 47 110 91 55 45 133 115 174 156 41 42 76 76 79 76 2 0 -4
-12 -14 -27z m-591 -48 c21 -45 38 -117 26 -109 -15 9 -59 102 -59 124 0 31
14 24 33 -15z m-61 -62 c75 -119 80 -130 67 -138 -6 -4 -13 -4 -16 -1 -17 17
-130 212 -126 219 10 17 23 3 75 -80z m-68 -46 c43 -84 51 -149 27 -219 -11
-33 -22 -42 -104 -82 -51 -25 -126 -54 -167 -66 -158 -43 -367 -67 -389 -45
-14 14 306 340 387 394 70 47 182 103 197 98 6 -1 27 -37 49 -80z m-428 18
c-6 -23 -315 -329 -324 -320 -13 13 73 125 190 245 101 104 132 131 136 117 2
-10 1 -29 -2 -42z m-1236 -47 c86 -27 224 -97 286 -144 27 -20 100 -82 163
-137 86 -77 110 -102 98 -108 -29 -17 -216 -32 -407 -33 -173 -1 -199 1 -233
18 -67 33 -71 47 -64 219 4 84 10 168 13 188 6 37 6 37 43 27 20 -5 65 -19
101 -30z m546 -143 l126 -109 -22 -18 c-30 -24 -91 -23 -122 2 -37 28 -87 111
-115 186 -29 80 -31 81 133 -61z m1279 -200 c-40 -68 -143 -139 -285 -195 -65
-26 -64 -17 3 16 78 39 164 104 237 178 70 72 87 72 45 1z m-2365 -32 c12 -13
-56 10 -70 23 -12 12 -8 12 25 -2 22 -9 42 -19 45 -21z"/>
</g>
</svg>
